<?xml version="1.0" encoding="UTF-8" standalone="no"?>
<!DOCTYPE svg PUBLIC "-//W3C//DTD SVG 1.1//EN"
 "http://www.w3.org/Graphics/SVG/1.1/DTD/svg11.dtd">
<!-- Generated by graphviz version 9.0.0 (0)
 -->
<!-- Pages: 1 -->
<svg width="110pt" height="133pt"
 viewBox="0.00 0.00 110.13 132.50" xmlns="http://www.w3.org/2000/svg" xmlns:xlink="http://www.w3.org/1999/xlink">
<g id="graph0" class="graph" transform="scale(1 1) rotate(0) translate(4 128.5)">
<polygon fill="white" stroke="none" points="-4,4 -4,-128.5 106.13,-128.5 106.13,4 -4,4"/>
<!-- happy -->
<g id="node1" class="node">
<title>happy</title>
<ellipse fill="none" stroke="black" cx="33.44" cy="-106.5" rx="33.44" ry="18"/>
<text text-anchor="middle" x="33.44" y="-101.45" font-family="Times,serif" font-size="14.00">happy</text>
</g>
<!-- happy&#45;&gt;happy -->
<g id="edge1" class="edge">
<title>happy&#45;&gt;happy</title>
<path fill="none" stroke="black" d="M63.55,-114.76C75.2,-115.13 84.88,-112.38 84.88,-106.5 84.88,-102.74 80.9,-100.25 74.99,-99.05"/>
<polygon fill="black" stroke="black" points="75.29,-95.56 65.06,-98.34 74.79,-102.54 75.29,-95.56"/>
<text text-anchor="middle" x="93.5" y="-101.45" font-family="Times,serif" font-size="14.00">0.7</text>
</g>
<!-- sad -->
<g id="node2" class="node">
<title>sad</title>
<ellipse fill="none" stroke="black" cx="33.44" cy="-18" rx="27" ry="18"/>
<text text-anchor="middle" x="33.44" y="-12.95" font-family="Times,serif" font-size="14.00">sad</text>
</g>
<!-- happy&#45;&gt;sad -->
<g id="edge2" class="edge">
<title>happy&#45;&gt;sad</title>
<path fill="none" stroke="black" d="M22.22,-89.13C18.97,-83.48 15.84,-76.95 14.19,-70.5 12.36,-63.4 12.36,-61.1 14.19,-54 15,-50.85 16.15,-47.68 17.51,-44.61"/>
<polygon fill="black" stroke="black" points="20.47,-46.51 21.93,-36.01 14.24,-43.3 20.47,-46.51"/>
<text text-anchor="middle" x="23.06" y="-57.2" font-family="Times,serif" font-size="14.00">0.3</text>
</g>
<!-- sad&#45;&gt;happy -->
<g id="edge3" class="edge">
<title>sad&#45;&gt;happy</title>
<path fill="none" stroke="black" d="M33.44,-36.35C33.44,-48.06 33.44,-63.79 33.44,-77.28"/>
<polygon fill="black" stroke="black" points="29.94,-76.9 33.44,-86.9 36.94,-76.9 29.94,-76.9"/>
<text text-anchor="middle" x="42.06" y="-57.2" font-family="Times,serif" font-size="14.00">0.4</text>
</g>
<!-- sad&#45;&gt;sad -->
<g id="edge4" class="edge">
<title>sad&#45;&gt;sad</title>
<path fill="none" stroke="black" d="M57.97,-26.17C68.95,-26.95 78.44,-24.22 78.44,-18 78.44,-14.11 74.73,-11.59 69.27,-10.43"/>
<polygon fill="black" stroke="black" points="69.65,-6.95 59.48,-9.91 69.28,-13.94 69.65,-6.95"/>
<text text-anchor="middle" x="87.06" y="-12.95" font-family="Times,serif" font-size="14.00">0.6</text>
</g>
</g>
</svg>