<?xml version="1.0" encoding="UTF-8" standalone="no"?>
<!DOCTYPE svg PUBLIC "-//W3C//DTD SVG 1.1//EN"
 "http://www.w3.org/Graphics/SVG/1.1/DTD/svg11.dtd">
<!-- Generated by graphviz version 9.0.0 (0)
 -->
<!-- Pages: 1 -->
<svg width="111pt" height="133pt"
 viewBox="0.00 0.00 111.22 132.50" xmlns="http://www.w3.org/2000/svg" xmlns:xlink="http://www.w3.org/1999/xlink">
<g id="graph0" class="graph" transform="scale(1 1) rotate(0) translate(4 128.5)">
<polygon fill="white" stroke="none" points="-4,4 -4,-128.5 107.22,-128.5 107.22,4 -4,4"/>
<!-- s0 -->
<g id="node1" class="node">
<title>s0</title>
<ellipse fill="none" stroke="black" cx="27.47" cy="-106.5" rx="27" ry="18"/>
<text text-anchor="middle" x="27.47" y="-101.45" font-family="Times,serif" font-size="14.00">s0</text>
</g>
<!-- s0&#45;&gt;s0 -->
<g id="edge1" class="edge">
<title>s0&#45;&gt;s0</title>
<path fill="none" stroke="black" d="M52,-114.67C62.97,-115.45 72.47,-112.72 72.47,-106.5 72.47,-102.61 68.76,-100.09 63.3,-98.93"/>
<polygon fill="black" stroke="black" points="63.68,-95.45 53.51,-98.41 63.31,-102.44 63.68,-95.45"/>
<text text-anchor="middle" x="87.84" y="-101.45" font-family="Times,serif" font-size="14.00">0.903</text>
</g>
<!-- s1 -->
<g id="node2" class="node">
<title>s1</title>
<ellipse fill="none" stroke="black" cx="27.47" cy="-18" rx="27" ry="18"/>
<text text-anchor="middle" x="27.47" y="-12.95" font-family="Times,serif" font-size="14.00">s1</text>
</g>
<!-- s0&#45;&gt;s1 -->
<g id="edge2" class="edge">
<title>s0&#45;&gt;s1</title>
<path fill="none" stroke="black" d="M13.33,-90.68C8.69,-84.85 4.11,-77.81 1.72,-70.5 -0.57,-63.53 -0.57,-60.97 1.72,-54 2.95,-50.23 4.77,-46.53 6.87,-43.04"/>
<polygon fill="black" stroke="black" points="9.59,-45.26 12.46,-35.06 3.85,-41.24 9.59,-45.26"/>
<text text-anchor="middle" x="17.84" y="-57.2" font-family="Times,serif" font-size="14.00">0.097</text>
</g>
<!-- s1&#45;&gt;s0 -->
<g id="edge3" class="edge">
<title>s1&#45;&gt;s0</title>
<path fill="none" stroke="black" d="M30.39,-36.04C31.24,-41.73 32.05,-48.12 32.47,-54 32.99,-61.31 32.99,-63.19 32.47,-70.5 32.31,-72.7 32.1,-74.98 31.85,-77.27"/>
<polygon fill="black" stroke="black" points="28.41,-76.59 30.59,-86.96 35.35,-77.5 28.41,-76.59"/>
<text text-anchor="middle" x="47.84" y="-57.2" font-family="Times,serif" font-size="14.00">0.999</text>
</g>
<!-- s1&#45;&gt;s1 -->
<g id="edge4" class="edge">
<title>s1&#45;&gt;s1</title>
<path fill="none" stroke="black" d="M52,-26.17C62.97,-26.95 72.47,-24.22 72.47,-18 72.47,-14.11 68.76,-11.59 63.3,-10.43"/>
<polygon fill="black" stroke="black" points="63.68,-6.95 53.51,-9.91 63.31,-13.94 63.68,-6.95"/>
<text text-anchor="middle" x="87.84" y="-12.95" font-family="Times,serif" font-size="14.00">0.001</text>
</g>
</g>
</svg>