<?xml version="1.0" encoding="UTF-8" standalone="no"?>
<!DOCTYPE svg PUBLIC "-//W3C//DTD SVG 1.1//EN"
 "http://www.w3.org/Graphics/SVG/1.1/DTD/svg11.dtd">
<!-- Generated by graphviz version 2.50.0 (0)
 -->
<!-- Pages: 1 -->
<svg width="112pt" height="133pt"
 viewBox="0.00 0.00 111.73 132.80" xmlns="http://www.w3.org/2000/svg" xmlns:xlink="http://www.w3.org/1999/xlink">
<g id="graph0" class="graph" transform="scale(1 1) rotate(0) translate(4 128.8)">
<polygon fill="white" stroke="transparent" points="-4,4 -4,-128.8 107.73,-128.8 107.73,4 -4,4"/>
<!-- s0 -->
<g id="node1" class="node">
<title>s0</title>
<ellipse fill="none" stroke="black" cx="27.23" cy="-106.8" rx="27" ry="18"/>
<text text-anchor="middle" x="27.23" y="-102.6" font-family="Times,serif" font-size="14.00">s0</text>
</g>
<!-- s0&#45;&gt;s0 -->
<g id="edge1" class="edge">
<title>s0&#45;&gt;s0</title>
<path fill="none" stroke="black" d="M51.77,-114.92C62.74,-115.69 72.23,-112.99 72.23,-106.8 72.23,-102.64 67.95,-100.06 61.81,-99.04"/>
<polygon fill="black" stroke="black" points="61.89,-95.54 51.77,-98.68 61.63,-102.54 61.89,-95.54"/>
<text text-anchor="middle" x="87.98" y="-102.6" font-family="Times,serif" font-size="14.00">0.676</text>
</g>
<!-- s1 -->
<g id="node2" class="node">
<title>s1</title>
<ellipse fill="none" stroke="black" cx="27.23" cy="-18" rx="27" ry="18"/>
<text text-anchor="middle" x="27.23" y="-13.8" font-family="Times,serif" font-size="14.00">s1</text>
</g>
<!-- s0&#45;&gt;s1 -->
<g id="edge2" class="edge">
<title>s0&#45;&gt;s1</title>
<path fill="none" stroke="black" d="M13.5,-91.3C8.82,-85.4 4.16,-78.23 1.73,-70.8 -0.58,-63.7 -0.58,-61.1 1.73,-54 3.1,-49.82 5.17,-45.72 7.55,-41.89"/>
<polygon fill="black" stroke="black" points="10.57,-43.68 13.5,-33.5 4.86,-39.63 10.57,-43.68"/>
<text text-anchor="middle" x="17.98" y="-58.2" font-family="Times,serif" font-size="14.00">0.324</text>
</g>
<!-- s1&#45;&gt;s0 -->
<g id="edge3" class="edge">
<title>s1&#45;&gt;s0</title>
<path fill="none" stroke="black" d="M30.75,-36.02C31.76,-41.71 32.73,-48.1 33.23,-54 33.87,-61.44 33.87,-63.36 33.23,-70.8 33.01,-73.38 32.71,-76.06 32.34,-78.73"/>
<polygon fill="black" stroke="black" points="28.86,-78.36 30.75,-88.78 35.77,-79.46 28.86,-78.36"/>
<text text-anchor="middle" x="48.98" y="-58.2" font-family="Times,serif" font-size="14.00">0.324</text>
</g>
<!-- s1&#45;&gt;s1 -->
<g id="edge4" class="edge">
<title>s1&#45;&gt;s1</title>
<path fill="none" stroke="black" d="M51.77,-26.12C62.74,-26.89 72.23,-24.19 72.23,-18 72.23,-13.84 67.95,-11.26 61.81,-10.24"/>
<polygon fill="black" stroke="black" points="61.89,-6.74 51.77,-9.88 61.63,-13.74 61.89,-6.74"/>
<text text-anchor="middle" x="87.98" y="-13.8" font-family="Times,serif" font-size="14.00">0.676</text>
</g>
</g>
</svg>